<!-- icon666.com - MILLIONS vector ICONS FREE --><svg fill="none" viewBox="0 0 24 24" xmlns="http://www.w3.org/2000/svg"><g fill="rgb(0,0,0)"><path clip-rule="evenodd" d="m18.2549 14.6645.2623-1.885c.0807-.58.1545-1.1102.2201-1.5966.1348-.9995.2022-1.49923-.0967-1.84106-.2988-.34184-.8124-.34184-1.8396-.34184h-9.60195c-1.02723 0-1.54084 0-1.83967.34184-.29884.34183-.23145.84156-.09666 1.84106.06561.4866.13935 1.0164.22009 1.5966l.26234 1.885c.28511 2.0487.42767 3.0731.72994 3.8958.56525 1.5385 1.54234 2.6844 2.70857 3.1765.62364.2632 1.35454.2632 2.81634.2632s2.1927 0 2.8164-.2632c1.1662-.4921 2.1433-1.638 2.7085-3.1765.3023-.8227.4449-1.8471.73-3.8958zm-7.5049-3.6645c0-.4142-.3358-.75-.75-.75-.41421 0-.75.3358-.75.75v8c0 .4142.33579.75.75.75.4142 0 .75-.3358.75-.75zm4 0c0-.4142-.3358-.75-.75-.75s-.75.3358-.75.75v8c0 .4142.3358.75.75.75s.75-.3358.75-.75z" fill-rule="evenodd"></path><path d="m12 1.25c-2.62335 0-4.75 2.12665-4.75 4.75v.25h-3.25c-.41421 0-.75.33579-.75.75s.33579.75.75.75h16c.4142 0 .75-.33579.75-.75s-.3358-.75-.75-.75h-3.25v-.25c0-2.62335-2.1266-4.75-4.75-4.75z"></path></g></svg>